<svg width="54" height="50" viewBox="0 0 54 50" fill="none" xmlns="http://www.w3.org/2000/svg">
<path d="M23.25 21.7929C23.25 21.1399 25.8382 15.9691 29.0025 10.3025L33.3235 2.56269C34.2069 0.980456 35.8771 0 37.6892 0H42.9637H48.4309C49.6563 0 50.4275 1.32049 49.8254 2.38786C49.0844 3.70161 46.4114 8.09701 43.8855 12.1564C41.3595 16.2157 39.0517 20.0007 38.7562 20.5677C38.4465 21.1625 40.9545 26.4861 44.6872 33.1582C49.6711 42.0654 51.9778 46.2151 52.6959 47.5092C52.8685 47.8202 53.0561 48.1441 53.0473 48.4997C53.025 49.398 51.5585 49.4918 44.8927 49.4851L39.4744 49.4796C37.5757 49.4776 35.842 48.4005 34.9991 46.6991L29.8125 36.2294C26.2027 28.9426 23.25 22.4467 23.25 21.7929Z" fill="#51B73D"/>
<rect width="23.2499" height="49.4938" rx="5" fill="#51B73D"/>
</svg>
